# File created by Blade
# Date/Time:  Tue Apr 07 21:12:45 2015
#---------------------------------------------------------
:version 1.10
:name HOM
:units
  mass 1.0
  length 1.000000
  angle deg
:documentation
     Acclaim Skeleton File
:root
   axis xyz
   order TX TY TZ RX RY RZ
   position 0.000000 0.000000 0.000000
   orientation 0 0 0
:bonedata
   begin
      id 1
      name Spine_dum
      direction 0.000000 1.000000 0.000000
      length 4.885285
      axis 0.0 0.0 0.0 xyz
   end
   begin
      id 2
      name LeftUpLeg_dum
      direction 1.000000 0.000000 0.000000
      length 2.672193
      axis 0.0 0.0 0.0 xyz
   end
   begin
      id 3
      name RightUpLeg_dum
      direction -1.000000 0.000000 0.000000
      length 2.672193
      axis 0.0 0.0 0.0 xyz
   end
   begin
      id 4
      name Spine
      direction 0.000000 1.000000 0.000000
      length 0.000000
      axis 0.0 0.0 0.0 xyz
      dof rx ry rz
   end
   begin
      id 5
      name Spine_dum1
      direction 0.000000 1.000000 0.000000
      length 16.494159
      axis 0.0 0.0 0.0 xyz
   end
   begin
      id 6
      name Spine_dum2
      direction 0.000000 1.000000 0.000000
      length 10.663448
      axis 0.0 0.0 0.0 xyz
   end
   begin
      id 7
      name Spine_dum3
      direction 0.000000 1.000000 0.000000
      length 10.663448
      axis 0.0 0.0 0.0 xyz
   end
   begin
      id 8
      name Head
      direction 0.000000 1.000000 0.000000
      length 4.527550
      axis 0.0 0.0 0.0 xyz
      dof rx ry rz
   end
   begin
      id 9
      name LeftShoulder
      direction 1.000000 0.000000 0.000000
      length 7.531907
      axis 0.0 0.0 -90.0 xyz
      dof rx ry rz
   end
   begin
      id 10
      name LeftArm
      direction 1.000000 0.000000 0.000000
      length 10.229199
      axis 0.0 0.0 -90.0 xyz
      dof rx ry rz
   end
   begin
      id 11
      name LeftForeArm
      direction 1.000000 0.000000 0.000000
      length 8.673495
      axis 0.0 0.0 -90.0 xyz
      dof ry rz rx
   end
   begin
      id 12
      name LeftHand
      direction 0.000000 0.000000 0.000000
      length 0.000000
      axis 0.0 0.0 -90.0 xyz
      dof rx ry rz
   end
   begin
      id 13
      name LeftHand_dum1
      direction 0.000000 0.000000 0.000000
      length 0.000000
      axis 0.0 0.0 -90.0 xyz
   end
   begin
      id 14
      name LeftHand_dum2
      direction 1.000000 0.000000 0.000000
      length 3.937000
      axis 0.0 0.0 -90.0 xyz
   end
   begin
      id 15
      name LeftHandThumb1
      direction 0.000000 0.000000 1.000000
      length 3.937000
      axis 0.0 0.0 -90.0 xyz
      dof rx rz ry
   end
   begin
      id 16
      name RightShoulder
      direction -1.000000 0.000000 0.000000
      length 7.531907
      axis 0.0 0.0 90.0 xyz
      dof rx ry rz
   end
   begin
      id 17
      name RightArm
      direction -1.000000 0.000000 0.000000
      length 10.229199
      axis 0.0 0.0 90.0 xyz
      dof rx ry rz
   end
   begin
      id 18
      name RightForeArm
      direction -1.000000 0.000000 0.000000
      length 8.673495
      axis 0.0 0.0 90.0 xyz
      dof ry rz rx
   end
   begin
      id 19
      name RightHand
      direction 0.000000 0.000000 0.000000
      length 0.000000
      axis 0.0 0.0 90.0 xyz
      dof rx ry rz
   end
   begin
      id 20
      name RightHand_dum1
      direction 0.000000 0.000000 0.000000
      length 0.000000
      axis 0.0 0.0 90.0 xyz
   end
   begin
      id 21
      name RightHand_dum2
      direction -1.000000 0.000000 0.000000
      length 3.937000
      axis 0.0 0.0 90.0 xyz
   end
   begin
      id 22
      name RightHandThumb1
      direction 0.000000 0.000000 1.000000
      length 3.937000
      axis 0.0 0.0 90.0 xyz
      dof rx rz ry
   end
   begin
      id 23
      name LeftUpLeg
      direction 0.000000 -1.000000 0.000000
      length 16.263388
      axis 0.0 0.0 0.0 xyz
      dof rx ry rz
   end
   begin
      id 24
      name LeftLeg
      direction 0.000000 -1.000000 0.000000
      length 14.328163
      axis 0.0 0.0 0.0 xyz
      dof rx ry rz
   end
   begin
      id 25
      name LeftFoot
      direction 0.000000 -0.258819 0.965926
      length 5.031290
      axis 15.0 0.0 0.0 xyz
      dof rx ry rz
   end
   begin
      id 26
      name LeftToeBase
      direction 0.000000 0.000000 1.000000
      length 2.952750
      axis 0.0 0.0 0.0 xyz
      dof rx ry rz
   end
   begin
      id 27
      name RightUpLeg
      direction 0.000000 -1.000000 0.000000
      length 16.263388
      axis 0.0 0.0 0.0 xyz
      dof rx ry rz
   end
   begin
      id 28
      name RightLeg
      direction 0.000000 -1.000000 0.000000
      length 14.328163
      axis 0.0 0.0 0.0 xyz
      dof rx ry rz
   end
   begin
      id 29
      name RightFoot
      direction 0.000000 -0.258819 0.965926
      length 5.031290
      axis 15.0 0.0 0.0 xyz
      dof rx ry rz
   end
   begin
      id 30
      name RightToeBase
      direction 0.000000 0.000000 1.000000
      length 2.952750
      axis 0.0 0.0 0.0 xyz
      dof rx ry rz
   end
:hierarchy
   begin
      root Spine_dum LeftUpLeg_dum RightUpLeg_dum
      Spine_dum Spine
      LeftUpLeg_dum LeftUpLeg
      RightUpLeg_dum RightUpLeg
      Spine Spine_dum1 Spine_dum2 Spine_dum3
      Spine_dum1 Head
      Spine_dum2 LeftShoulder
      Spine_dum3 RightShoulder
      LeftShoulder LeftArm
      LeftArm LeftForeArm
      LeftForeArm LeftHand
      LeftHand LeftHand_dum1 LeftHand_dum2
      LeftHand_dum1 LeftHandThumb1
      RightShoulder RightArm
      RightArm RightForeArm
      RightForeArm RightHand
      RightHand RightHand_dum1 RightHand_dum2
      RightHand_dum1 RightHandThumb1
      LeftUpLeg LeftLeg
      LeftLeg LeftFoot
      LeftFoot LeftToeBase
      RightUpLeg RightLeg
      RightLeg RightFoot
      RightFoot RightToeBase
   end

# File created by Blade
# Date/Time:  Tue Apr 07 21:12:38 2015
# Frame Rate: 120.000 fps
#------------------------------------------------------
:FULLY-SPECIFIED
:DEGREES
66
root 0.391354 32.998271 1.063760 3.771648 1.448692 -1.308828
Spine -4.712775 -7.537030 -0.601030
Head 24.808312 -3.100788 3.132801
LeftShoulder -21.546620 46.591664 12.053698
LeftArm 62.615192 -48.536741 -75.952302
LeftForeArm 9.261304 -0.000000 12.598461
LeftHand 4.991828 0.000000 13.074066
LeftHandThumb1 -26.253704 0.000000 33.147579
RightShoulder -8.798149 -2.441725 -25.843107
RightArm 10.244988 16.806974 48.300136
RightForeArm -10.302173 -0.000000 6.250294
RightHand 7.735676 0.000000 -4.529761
RightHandThumb1 -24.326973 -0.000000 -32.862282
LeftUpLeg 0.244821 -5.399483 -0.658324
LeftLeg 3.896681 -0.000000 -0.000000
LeftFoot -8.876569 9.847539 -14.438953
LeftToeBase -10.437257 -0.000000 0.000000
RightUpLeg 0.382338 -0.635121 1.821549
RightLeg 2.857104 -0.000000 -0.000000
RightFoot -7.955535 -5.740129 8.653378
RightToeBase -5.173317 -0.000000 0.000000
67
root 0.425595 33.002566 1.049906 3.786801 1.220707 -1.296689
Spine -4.607560 -7.552213 -0.489117
Head 25.331614 -2.776753 3.238533
LeftShoulder -21.527945 46.648851 11.663451
LeftArm 62.373432 -47.636430 -76.338753
LeftForeArm 9.365740 -0.000000 12.797446
LeftHand 4.918105 -0.000000 12.994176
LeftHandThumb1 -26.253704 0.000000 33.147579
RightShoulder -8.729730 -2.677297 -25.628551
RightArm 10.386369 16.477368 48.888689
RightForeArm -10.308971 0.000000 6.099821
RightHand 7.623765 0.000000 -4.384876
RightHandThumb1 -24.326973 -0.000000 -32.862282
LeftUpLeg -0.189476 -5.447646 -0.759315
LeftLeg 4.774843 -0.000000 -0.000000
LeftFoot -9.270066 10.011716 -14.503628
LeftToeBase -10.406731 -0.000000 0.000000
RightUpLeg 0.201358 -0.452152 1.728718
RightLeg 3.125569 -0.000000 -0.000000
RightFoot -7.992674 -5.679788 8.720928
RightToeBase -5.264910 -0.000000 0.000000
68
root 0.462957 33.006991 1.037932 3.763830 0.959700 -1.298453
Spine -4.452006 -7.579511 -0.360407
Head 25.856645 -2.377854 3.361924
LeftShoulder -21.638192 46.834284 11.171959
LeftArm 62.205828 -46.657418 -76.714259
LeftForeArm 9.142785 -0.000000 12.963218
LeftHand 4.966229 -0.000000 12.875245
LeftHandThumb1 -26.253704 0.000000 33.147579
RightShoulder -8.638851 -2.852045 -25.414087
RightArm 10.531337 16.090112 49.449365
RightForeArm -10.191950 -0.000000 5.913987
RightHand 7.491469 0.000000 -4.171618
RightHandThumb1 -24.326973 -0.000000 -32.862282
LeftUpLeg -0.597004 -5.528432 -0.854930
LeftLeg 5.693168 -0.000000 -0.000000
LeftFoot -9.694836 10.186969 -14.687026
LeftToeBase -10.431078 -0.000000 0.000000
RightUpLeg 0.029232 -0.247801 1.645557
RightLeg 3.457360 -0.000000 -0.000000
RightFoot -8.053524 -5.637391 8.785269
RightToeBase -5.305151 -0.000000 0.000000
69
root 0.504247 33.009739 1.023878 3.745891 0.709002 -1.288951
Spine -4.287593 -7.589541 -0.226952
Head 26.374147 -1.970579 3.464846
LeftShoulder -21.637896 47.017958 10.745316
LeftArm 62.041604 -45.745583 -77.191648
LeftForeArm 9.252597 0.000000 13.186448
LeftHand 4.932161 -0.000000 12.628230
LeftHandThumb1 -26.253704 0.000000 33.147579
RightShoulder -8.609173 -2.972131 -25.222202
RightArm 10.617976 15.473090 49.960033
RightForeArm -9.960781 -0.000000 5.765643
RightHand 7.522960 -0.000000 -4.004994
RightHandThumb1 -24.326973 -0.000000 -32.862282
LeftUpLeg -1.052018 -5.608002 -0.958482
LeftLeg 6.687364 -0.000000 -0.000000
LeftFoot -10.128107 10.314218 -14.881185
LeftToeBase -10.411369 -0.000000 0.000000
RightUpLeg -0.153052 -0.045384 1.547872
RightLeg 3.791734 -0.000000 -0.000000
RightFoot -8.130422 -5.608249 8.832421
RightToeBase -5.385997 -0.000000 0.000000
70
root 0.549972 33.011497 1.009181 3.707434 0.433252 -1.280258
Spine -4.086011 -7.589607 -0.084032
Head 26.893390 -1.554174 3.547719
LeftShoulder -21.707350 47.282134 10.289012
LeftArm 61.962568 -44.760948 -77.706066
LeftForeArm 9.454189 -0.000000 13.374420
LeftHand 4.849199 -0.000000 12.544793
LeftHandThumb1 -26.253704 0.000000 33.147579
RightShoulder -8.551658 -3.102138 -25.058606
RightArm 10.644978 14.754426 50.448637
RightForeArm -9.464696 0.000000 5.716332
RightHand 7.463157 -0.000000 -3.790344
RightHandThumb1 -24.326973 -0.000000 -32.862282
LeftUpLeg -1.515403 -5.696504 -1.069455
LeftLeg 7.745508 -0.000000 -0.000000
LeftFoot -10.598009 10.433494 -15.196116
LeftToeBase -10.375637 -0.000000 0.000000
RightUpLeg -0.318889 0.166237 1.432602
RightLeg 4.125339 -0.000000 -0.000000
RightFoot -8.192103 -5.516635 8.926651
RightToeBase -5.465481 -0.000000 0.000000
71
root 0.595896 33.010840 0.995251 3.658237 0.143413 -1.290570
Spine -3.864311 -7.570405 0.084172
Head 27.399539 -1.104275 3.665026
LeftShoulder -21.755180 47.520221 9.853745
LeftArm 61.791969 -43.738252 -78.080846
LeftForeArm 9.604166 0.000000 13.489061
LeftHand 4.989196 -0.000000 12.739775
LeftHandThumb1 -26.253704 0.000000 33.147579
RightShoulder -8.464091 -3.187194 -24.989926
RightArm 10.580663 14.377012 51.090636
RightForeArm -9.096079 0.000000 5.706597
RightHand 7.384624 -0.000000 -3.584965
RightHandThumb1 -24.326973 -0.000000 -32.862282
LeftUpLeg -1.997083 -5.749495 -1.154073
LeftLeg 8.866470 -0.000000 -0.000000
LeftFoot -11.103482 10.461920 -15.582769
LeftToeBase -10.344210 -0.000000 0.000000
RightUpLeg -0.508718 0.322643 1.339312
RightLeg 4.530446 -0.000000 -0.000000
RightFoot -8.274240 -5.380708 8.943888
RightToeBase -5.642219 -0.000000 0.000000
72
root 0.636173 33.007601 0.978239 3.635262 -0.132195 -1.355942
Spine -3.641143 -7.578525 0.306779
Head 27.860142 -0.668774 3.745632
LeftShoulder -21.849391 47.767535 9.389875
LeftArm 61.574387 -42.673661 -78.327664
LeftForeArm 9.697529 0.000000 13.582253
LeftHand 4.974058 -0.000000 12.562150
LeftHandThumb1 -26.253704 0.000000 33.147579
RightShoulder -8.395464 -3.289542 -24.942807
RightArm 10.528614 14.198878 51.841229
RightForeArm -8.935362 -0.000000 5.763780
RightHand 7.281449 -0.000000 -3.561982
RightHandThumb1 -24.326973 -0.000000 -32.862282
LeftUpLeg -2.758384 -5.301233 -1.170927
LeftLeg 10.501263 -0.000000 -0.000000
LeftFoot -11.640229 10.099040 -15.733085
LeftToeBase -10.367081 -0.000000 0.000000
RightUpLeg -0.709986 0.569715 1.316017
RightLeg 4.889895 -0.000000 -0.000000
RightFoot -8.354408 -5.350192 9.000338
RightToeBase -5.728346 -0.000000 0.000000
73
root 0.684972 33.005007 0.962997 3.555989 -0.424820 -1.422120
Spine -3.344888 -7.559809 0.558006
Head 28.311044 -0.185439 3.764281
LeftShoulder -21.946658 47.954698 8.907203
LeftArm 61.397521 -41.574201 -78.578310
LeftForeArm 9.717987 0.000000 13.579514
LeftHand 5.010632 -0.000000 12.438865
LeftHandThumb1 -26.253704 0.000000 33.147579
RightShoulder -8.344744 -3.366275 -24.907630
RightArm 10.450390 14.084483 52.553529
RightForeArm -8.594909 -0.000000 5.819778
RightHand 7.410024 -0.000000 -3.334355
RightHandThumb1 -24.326973 -0.000000 -32.862282
LeftUpLeg -3.310746 -5.316336 -1.189113
LeftLeg 11.830212 -0.000000 -0.000000
LeftFoot -12.145993 9.993180 -16.193397
LeftToeBase -10.480416 -0.000000 0.000000
RightUpLeg -0.860183 0.819712 1.274844
RightLeg 5.270275 -0.000000 -0.000000
RightFoot -8.421594 -5.276809 9.090355
RightToeBase -5.841027 -0.000000 0.000000
74
root 0.738015 32.999531 0.948388 3.509518 -0.725842 -1.441145
Spine -3.073355 -7.571564 0.748145
Head 28.745566 0.293316 3.858895
LeftShoulder -22.089912 48.055283 8.476756
LeftArm 61.246388 -40.469991 -78.998290
LeftForeArm 9.880481 -0.000000 13.617207
LeftHand 5.011276 -0.000000 12.249644
LeftHandThumb1 -26.253704 0.000000 33.147579
RightShoulder -8.285576 -3.518422 -24.824412
RightArm 10.458535 14.108250 53.277575
RightForeArm -8.290210 -0.000000 5.883280
RightHand 7.369704 0.000000 -3.268582
RightHandThumb1 -24.326973 -0.000000 -32.862282
LeftUpLeg -3.879377 -5.481943 -1.241847
LeftLeg 13.130013 -0.000000 -0.000000
LeftFoot -12.655449 9.878469 -16.895501
LeftToeBase -10.493346 -0.000000 0.000000
RightUpLeg -1.075590 1.013551 1.175599
RightLeg 5.720526 -0.000000 -0.000000
RightFoot -8.541689 -5.155744 9.169284
RightToeBase -6.024106 -0.000000 0.000000
